<svg id="visual" viewBox="0 0 900 600" width="900" height="600" xmlns="http://www.w3.org/2000/svg" xmlns:xlink="http://www.w3.org/1999/xlink" version="1.1"><rect x="0" y="0" width="900" height="600" fill="#002233"></rect><path d="M0 188L21.5 180.3C43 172.7 86 157.3 128.8 145.7C171.7 134 214.3 126 257.2 124.3C300 122.7 343 127.3 385.8 132.7C428.7 138 471.3 144 514.2 157.3C557 170.7 600 191.3 642.8 198.3C685.7 205.3 728.3 198.7 771.2 192.2C814 185.7 857 179.3 878.5 176.2L900 173L900 0L878.5 0C857 0 814 0 771.2 0C728.3 0 685.7 0 642.8 0C600 0 557 0 514.2 0C471.3 0 428.7 0 385.8 0C343 0 300 0 257.2 0C214.3 0 171.7 0 128.8 0C86 0 43 0 21.5 0L0 0Z" fill="#FFFFFF" stroke-linecap="round" stroke-linejoin="miter"></path></svg>